<svg height="512pt" viewBox="-31 0 512 512" width="512pt" xmlns="http://www.w3.org/2000/svg"><path d="m0 467c0 24.851562 20.148438 45 45 45h360c24.851562 0 45-20.148438 45-45s-20.148438-45-45-45c-19.566406 0-36.046875 12.5625-42.246094 30h-32.753906c-5.035156-1.109375-37.339844-3.035156-64.671875-30h-81.417969c-14.875 15.078125-34.402344 28.386719-55.34375 30h-41.320312c-6.199219-17.4375-22.679688-30-42.246094-30-24.851562 0-45 20.148438-45 45zm0 0"/><path d="m233.320312 5.550781-8.320312-5.550781-8.320312 5.550781c-33.207032 22.136719-58.726563 51.585938-75.316407 86.449219h167.273438c-16.589844-34.863281-42.109375-64.3125-75.316407-86.449219zm0 0"/><path d="m225 242c8.277344 0 15-6.722656 15-15s-6.722656-15-15-15-15 6.722656-15 15 6.722656 15 15 15zm0 0"/><path d="m120 185.164062v62.753907c0 29.390625 6.898438 57.9375 19.601562 84.082031h170.796876c12.699218-26.144531 19.601562-54.691406 19.601562-84.082031v-62.753907c0-21.761718-3.597656-42.921874-9.75-63.164062h-190.5c-6.152344 20.242188-9.75 41.402344-9.75 63.164062zm105-3.164062c24.8125 0 45 20.1875 45 45s-20.1875 45-45 45-45-20.1875-45-45 20.1875-45 45-45zm0 0"/><path d="m408.851562 321.335938c2.417969-7.984376 4.527344-15.789063 6.007813-23.085938 4.335937-21.429688-1.039063-43.359375-14.78125-60.160156-10.320313-12.632813-24.457031-21.082032-40.078125-24.425782v34.253907c0 28.902343-5.972656 57.078125-17.109375 84.082031h62.742187zm0 0"/><path d="m49.835938 238.148438c-13.742188 16.828124-19.105469 38.757812-14.722657 60.160156 1.476563 7.28125 3.585938 15.085937 6.003907 23.054687l3.253906 10.636719h62.738281c-11.132813-27.003906-17.109375-55.179688-17.109375-84.082031v-34.253907c-15.660156 3.347657-29.824219 11.820313-40.164062 24.484376zm0 0"/><path d="m279.273438 392 15-30h-138.546876l15 30zm0 0"/></svg>