<svg height="512pt" viewBox="0 0 512 512" width="512pt" xmlns="http://www.w3.org/2000/svg"><path d="m482 0c-16.570312 0-30 13.429688-30 30v30h60v-30c0-16.570312-13.429688-30-30-30zm0 0"/><path d="m242 210c-33.089844 0-60 26.910156-60 60h120c0-33.089844-26.910156-60-60-60zm0 0"/><path d="m242 90c-16.539062 0-30 13.460938-30 30s13.460938 30 30 30 30-13.460938 30-30-13.460938-30-30-30zm0 0"/><path d="m61 75v347h271v45c0 24.851562 20.148438 45 45 45s45-20.148438 45-45v-437c0-10.976562 3.175781-21.140625 8.34375-30h-293.34375c-41.421875 0-76 33.578125-76 75zm301 285h-240v-30h240zm-210-90c0-49.628906 40.371094-90 90-90-33.089844 0-60-26.910156-60-60s26.910156-60 60-60 60 26.910156 60 60-26.910156 60-60 60c49.628906 0 90 40.371094 90 90v30h-180zm0 0"/><path d="m45 512h272.382812c-9.519531-12.574219-15.382812-28.050781-15.382812-45v-15h-302v15c0 24.851562 20.148438 45 45 45zm0 0"/></svg>