<?xml version="1.0" encoding="iso-8859-1"?>
<!-- Generator: Adobe Illustrator 19.0.0, SVG Export Plug-In . SVG Version: 6.00 Build 0)  -->
<svg version="1.1" id="Capa_1" xmlns="http://www.w3.org/2000/svg" xmlns:xlink="http://www.w3.org/1999/xlink" x="0px" y="0px"
	 viewBox="0 0 512 512" style="enable-background:new 0 0 512 512;" xml:space="preserve">
<g>
	<g>
		<g>
			<path d="M501.333,416h-32V53.333C469.333,23.878,445.455,0,416,0H138.667c-29.455,0-53.333,23.878-53.333,53.333
				C85.333,59.224,90.109,64,96,64h32v133.867c-3.52,0-7.04-0.533-10.667-0.533C52.532,197.333,0,249.865,0,314.667
				c0,34.667,14.827,64.64,37.547,106.667c1.932,3.347,5.523,5.387,9.387,5.333h6.4v74.667C53.333,507.224,58.109,512,64,512
				h106.667c5.891,0,10.667-4.776,10.667-10.667V480h277.333C488.122,480,512,456.122,512,426.667
				C512,420.776,507.224,416,501.333,416z M108.48,42.667c4.522-12.791,16.62-21.34,30.187-21.333h234.667
				c-4.739,6.313-8.018,13.599-9.6,21.333H108.48z M160,490.667H74.667v-21.333H160V490.667z M160,448H74.667v-21.333H160V448z
				 M170.667,405.333H128v-74.667h32c17.673,0,32-14.327,32-32c0-17.673-14.327-32-32-32s-32,14.327-32,32
				c0.029,3.639,0.678,7.246,1.92,10.667h-25.173c1.242-3.421,1.891-7.028,1.92-10.667c0-17.673-14.327-32-32-32
				c-17.673,0-32,14.327-32,32c0,17.673,14.327,32,32,32h32v74.667H53.333c-19.413-36.053-32-62.507-32-90.667
				c0-53.019,42.981-96,96-96c53.019,0,96,42.981,96,96c0,28.16-12.587,54.613-32,90.667H170.667z M149.333,298.667
				c0-5.891,4.776-10.667,10.667-10.667s10.667,4.776,10.667,10.667c0,5.891-4.776,10.667-10.667,10.667
				S149.333,304.558,149.333,298.667z M85.333,298.667c0,5.891-4.776,10.667-10.667,10.667c-5.891,0-10.667-4.776-10.667-10.667
				C64,292.776,68.776,288,74.667,288C80.558,288,85.333,292.776,85.333,298.667z M213.333,426.667c0,17.673-14.327,32-32,32v-32
				h6.4c3.909,0.011,7.51-2.118,9.387-5.547c22.72-41.813,37.547-71.787,37.547-106.667c-0.062-52.426-34.895-98.449-85.333-112.747
				V64h224C379.224,64,384,59.224,384,53.333c0-17.673,14.327-32,32-32s32,14.327,32,32V416H224
				C218.109,416,213.333,420.776,213.333,426.667z M458.667,458.667H224c4.739-6.313,8.018-13.599,9.6-21.333h255.253
				C484.331,450.125,472.234,458.674,458.667,458.667z"/>
			<path d="M352,192h64c5.891,0,10.667-4.776,10.667-10.667v-64c0-5.891-4.776-10.667-10.667-10.667h-64
				c-5.891,0-10.667,4.776-10.667,10.667v64C341.333,187.224,346.109,192,352,192z M362.667,128h42.667v42.667h-42.667V128z"/>
			<path d="M352,309.333h64c5.891,0,10.667-4.776,10.667-10.667v-64c0-5.891-4.776-10.667-10.667-10.667h-64
				c-5.891,0-10.667,4.776-10.667,10.667v64C341.333,304.558,346.109,309.333,352,309.333z M362.667,245.333h42.667V288h-42.667
				V245.333z"/>
			<rect x="213.333" y="106.667" width="85.333" height="21.333"/>
			<rect x="213.333" y="170.667" width="85.333" height="21.333"/>
			<rect x="341.333" y="352" width="85.333" height="21.333"/>
		</g>
	</g>
</g>
<g>
</g>
<g>
</g>
<g>
</g>
<g>
</g>
<g>
</g>
<g>
</g>
<g>
</g>
<g>
</g>
<g>
</g>
<g>
</g>
<g>
</g>
<g>
</g>
<g>
</g>
<g>
</g>
<g>
</g>
</svg>
