<svg xmlns="http://www.w3.org/2000/svg" class="jsx-2263963463 artboard" style="width: 64%; height: 64%; top: 18%; left: 18%;"><svg viewBox="-26.583616901408448 0 53.167233802816895 100" xmlns="http://www.w3.org/2000/svg" xmlns:xlink="http://www.w3.org/1999/xlink" version="1.1" class="jsx-2263963463 artboard-inner" style="width: 119.626px; height: 225px; max-height: 100%;"><g transform="translate(-30.189250704225348 98.19718309859154) scale(1.602503912363067)" fill="currentColor"><g id="line1"><path d="M14.625-60.750L11.250-19.125L7.875-60.750L3.375-60.750L2.250 0L6.750 0L6.750-41.625L10.125-3.375L12.375-3.375L15.750-41.625L15.750 0L20.250 0L19.125-60.750Z"/><path d="M35.428-36L35.428-55.125C35.428-56.133 35.240-57.023 34.865-57.797C34.490-58.570 33.986-59.215 33.353-59.730C32.721-60.246 32.000-60.633 31.191-60.891C30.383-61.148 29.545-61.277 28.678-61.277C27.857-61.277 27.049-61.160 26.252-60.926C25.455-60.691 24.734-60.328 24.090-59.836C23.445-59.344 22.924-58.705 22.525-57.920C22.127-57.135 21.928-56.203 21.928-55.125L21.928-5.625C21.928-5.344 21.963-4.834 22.033-4.096C22.103-3.357 22.349-2.602 22.771-1.828C23.193-1.055 23.861-0.369 24.775 0.229C25.689 0.826 26.990 1.125 28.678 1.125C30.365 1.125 31.666 0.826 32.580 0.229C33.494-0.369 34.162-1.055 34.584-1.828C35.006-2.602 35.252-3.357 35.322-4.096C35.392-4.834 35.428-5.344 35.428-5.625L35.428-29.250L30.928-29.250L30.928-5.625C30.928-5.344 30.916-5.010 30.892-4.623C30.869-4.236 30.787-3.867 30.646-3.516C30.506-3.164 30.283-2.865 29.978-2.619C29.674-2.373 29.240-2.250 28.678-2.250C28.115-2.250 27.682-2.373 27.377-2.619C27.072-2.865 26.849-3.164 26.709-3.516C26.568-3.867 26.486-4.236 26.463-4.623C26.439-5.010 26.428-5.344 26.428-5.625L26.428-55.125C26.428-55.688 26.492-56.150 26.621-56.514C26.750-56.877 26.920-57.158 27.131-57.357C27.342-57.557 27.582-57.697 27.851-57.779C28.121-57.861 28.396-57.902 28.678-57.902C28.959-57.902 29.234-57.861 29.504-57.779C29.773-57.697 30.014-57.557 30.224-57.357C30.435-57.158 30.605-56.877 30.734-56.514C30.863-56.150 30.928-55.688 30.928-55.125L30.928-36Z"/></g></g></svg></svg>